<mxfile host="Electron" modified="2023-04-15T08:00:38.811Z" agent="Mozilla/5.0 (Windows NT 10.0; Win64; x64) AppleWebKit/537.36 (KHTML, like Gecko) draw.io/21.1.2 Chrome/106.0.5249.199 Electron/21.4.3 Safari/537.36" etag="uxNw6OYiJufgGs2rI49n" version="21.1.2" type="device">
  <diagram name="Req4 (F)" id="OylWXZwuCOb0oOiE459v">
    <mxGraphModel dx="3984" dy="836" grid="1" gridSize="10" guides="1" tooltips="1" connect="1" arrows="1" fold="1" page="1" pageScale="1" pageWidth="850" pageHeight="1100" math="0" shadow="0">
      <root>
        <mxCell id="ykoWP7H_8N8HBuy1noUv-0" />
        <mxCell id="ykoWP7H_8N8HBuy1noUv-1" value="Big Package" style="" parent="ykoWP7H_8N8HBuy1noUv-0" />
        <mxCell id="ykoWP7H_8N8HBuy1noUv-4" value="" style="shape=folder;fontStyle=1;spacingTop=10;tabWidth=110;tabHeight=30;tabPosition=left;html=1;whiteSpace=wrap;" parent="ykoWP7H_8N8HBuy1noUv-1" vertex="1">
          <mxGeometry x="-2320" y="100" width="2620" height="250" as="geometry" />
        </mxCell>
        <mxCell id="ykoWP7H_8N8HBuy1noUv-5" value="engine" style="text;html=1;strokeColor=none;fillColor=none;align=center;verticalAlign=middle;whiteSpace=wrap;rounded=0;" parent="ykoWP7H_8N8HBuy1noUv-1" vertex="1">
          <mxGeometry x="-2320" y="100" width="110" height="30" as="geometry" />
        </mxCell>
        <mxCell id="ykoWP7H_8N8HBuy1noUv-6" value="" style="shape=folder;fontStyle=1;spacingTop=10;tabWidth=110;tabHeight=30;tabPosition=left;html=1;whiteSpace=wrap;" parent="ykoWP7H_8N8HBuy1noUv-1" vertex="1">
          <mxGeometry x="-2300" y="380" width="2600" height="1280" as="geometry" />
        </mxCell>
        <mxCell id="ykoWP7H_8N8HBuy1noUv-7" value="game" style="text;html=1;strokeColor=none;fillColor=none;align=center;verticalAlign=middle;whiteSpace=wrap;rounded=0;" parent="ykoWP7H_8N8HBuy1noUv-1" vertex="1">
          <mxGeometry x="-2320" y="380" width="110" height="30" as="geometry" />
        </mxCell>
        <mxCell id="zGcxo609RlZI83Uq-2vH-0" value="" style="shape=folder;fontStyle=1;spacingTop=10;tabWidth=110;tabHeight=30;tabPosition=left;html=1;whiteSpace=wrap;" parent="ykoWP7H_8N8HBuy1noUv-1" vertex="1">
          <mxGeometry x="-1130" y="1020" width="380" height="290" as="geometry" />
        </mxCell>
        <object label="main" id="ykoWP7H_8N8HBuy1noUv-8">
          <mxCell style="" parent="ykoWP7H_8N8HBuy1noUv-0" />
        </object>
        <mxCell id="ykoWP7H_8N8HBuy1noUv-9" value="" style="shape=folder;fontStyle=1;spacingTop=10;tabWidth=110;tabHeight=30;tabPosition=left;html=1;whiteSpace=wrap;" parent="ykoWP7H_8N8HBuy1noUv-8" vertex="1">
          <mxGeometry x="-2080" y="430" width="690" height="520" as="geometry" />
        </mxCell>
        <mxCell id="ykoWP7H_8N8HBuy1noUv-10" value="" style="shape=folder;fontStyle=1;spacingTop=10;tabWidth=110;tabHeight=30;tabPosition=left;html=1;whiteSpace=wrap;" parent="ykoWP7H_8N8HBuy1noUv-8" vertex="1">
          <mxGeometry x="-1210" y="440" width="460" height="520" as="geometry" />
        </mxCell>
        <mxCell id="ykoWP7H_8N8HBuy1noUv-11" value="" style="shape=folder;fontStyle=1;spacingTop=10;tabWidth=110;tabHeight=30;tabPosition=left;html=1;whiteSpace=wrap;" parent="ykoWP7H_8N8HBuy1noUv-8" vertex="1">
          <mxGeometry x="-530" y="450" width="790" height="510" as="geometry" />
        </mxCell>
        <mxCell id="ykoWP7H_8N8HBuy1noUv-12" value="environment" style="text;html=1;strokeColor=none;fillColor=none;align=center;verticalAlign=middle;whiteSpace=wrap;rounded=0;" parent="ykoWP7H_8N8HBuy1noUv-8" vertex="1">
          <mxGeometry x="-1210" y="440" width="110" height="30" as="geometry" />
        </mxCell>
        <mxCell id="ykoWP7H_8N8HBuy1noUv-13" value="weapon" style="text;html=1;strokeColor=none;fillColor=none;align=center;verticalAlign=middle;whiteSpace=wrap;rounded=0;" parent="ykoWP7H_8N8HBuy1noUv-8" vertex="1">
          <mxGeometry x="-530" y="450" width="110" height="30" as="geometry" />
        </mxCell>
        <mxCell id="ykoWP7H_8N8HBuy1noUv-14" value="" style="shape=folder;fontStyle=1;spacingTop=10;tabWidth=110;tabHeight=30;tabPosition=left;html=1;whiteSpace=wrap;" parent="ykoWP7H_8N8HBuy1noUv-8" vertex="1">
          <mxGeometry x="-1520" y="1130" width="340" height="480" as="geometry" />
        </mxCell>
        <mxCell id="ykoWP7H_8N8HBuy1noUv-15" style="edgeStyle=orthogonalEdgeStyle;rounded=0;orthogonalLoop=1;jettySize=auto;html=1;endArrow=blockThin;endFill=0;strokeColor=#9999FF;entryX=0;entryY=0.801;entryDx=0;entryDy=0;entryPerimeter=0;" parent="ykoWP7H_8N8HBuy1noUv-8" source="ykoWP7H_8N8HBuy1noUv-18" target="ykoWP7H_8N8HBuy1noUv-53" edge="1">
          <mxGeometry relative="1" as="geometry">
            <Array as="points">
              <mxPoint x="-225" y="220" />
            </Array>
          </mxGeometry>
        </mxCell>
        <mxCell id="ykoWP7H_8N8HBuy1noUv-16" value="extends" style="edgeLabel;html=1;align=center;verticalAlign=middle;resizable=0;points=[];" parent="ykoWP7H_8N8HBuy1noUv-15" connectable="0" vertex="1">
          <mxGeometry x="-0.0556" relative="1" as="geometry">
            <mxPoint y="185" as="offset" />
          </mxGeometry>
        </mxCell>
        <mxCell id="ykoWP7H_8N8HBuy1noUv-17" value="implements" style="edgeStyle=orthogonalEdgeStyle;rounded=0;orthogonalLoop=1;jettySize=auto;html=1;fillColor=#f8cecc;strokeColor=#b85450;dashed=1;endArrow=blockThin;endFill=0;entryX=0.722;entryY=0.005;entryDx=0;entryDy=0;entryPerimeter=0;" parent="ykoWP7H_8N8HBuy1noUv-8" source="ykoWP7H_8N8HBuy1noUv-18" target="ykoWP7H_8N8HBuy1noUv-135" edge="1">
          <mxGeometry relative="1" as="geometry">
            <mxPoint x="-290" y="820" as="targetPoint" />
            <Array as="points">
              <mxPoint x="-290" y="830" />
            </Array>
          </mxGeometry>
        </mxCell>
        <mxCell id="ykoWP7H_8N8HBuy1noUv-18" value="Grossmesser" style="html=1;whiteSpace=wrap;" parent="ykoWP7H_8N8HBuy1noUv-8" vertex="1">
          <mxGeometry x="-300" y="590" width="110" height="50" as="geometry" />
        </mxCell>
        <mxCell id="ykoWP7H_8N8HBuy1noUv-19" value="extends" style="edgeStyle=orthogonalEdgeStyle;rounded=0;orthogonalLoop=1;jettySize=auto;html=1;endArrow=block;endFill=0;fillColor=#dae8fc;strokeColor=#6c8ebf;" parent="ykoWP7H_8N8HBuy1noUv-8" source="ykoWP7H_8N8HBuy1noUv-20" target="ykoWP7H_8N8HBuy1noUv-51" edge="1">
          <mxGeometry x="-0.759" relative="1" as="geometry">
            <Array as="points">
              <mxPoint x="-890" y="645" />
            </Array>
            <mxPoint as="offset" />
          </mxGeometry>
        </mxCell>
        <mxCell id="ykoWP7H_8N8HBuy1noUv-20" value="Graveyard" style="html=1;whiteSpace=wrap;" parent="ykoWP7H_8N8HBuy1noUv-8" vertex="1">
          <mxGeometry x="-1130" y="620" width="110" height="50" as="geometry" />
        </mxCell>
        <mxCell id="ykoWP7H_8N8HBuy1noUv-21" value="extends" style="edgeStyle=orthogonalEdgeStyle;rounded=0;orthogonalLoop=1;jettySize=auto;html=1;entryX=0.5;entryY=1;entryDx=0;entryDy=0;endArrow=block;endFill=0;fillColor=#dae8fc;strokeColor=#6c8ebf;" parent="ykoWP7H_8N8HBuy1noUv-8" source="ykoWP7H_8N8HBuy1noUv-22" target="ykoWP7H_8N8HBuy1noUv-51" edge="1">
          <mxGeometry x="-0.6986" relative="1" as="geometry">
            <mxPoint as="offset" />
          </mxGeometry>
        </mxCell>
        <mxCell id="ykoWP7H_8N8HBuy1noUv-22" value="GustOfWind" style="html=1;whiteSpace=wrap;" parent="ykoWP7H_8N8HBuy1noUv-8" vertex="1">
          <mxGeometry x="-1130" y="730" width="110" height="50" as="geometry" />
        </mxCell>
        <mxCell id="ykoWP7H_8N8HBuy1noUv-23" value="extends" style="edgeStyle=orthogonalEdgeStyle;rounded=0;orthogonalLoop=1;jettySize=auto;html=1;endArrow=block;endFill=0;fillColor=#dae8fc;strokeColor=#6c8ebf;" parent="ykoWP7H_8N8HBuy1noUv-8" source="ykoWP7H_8N8HBuy1noUv-24" edge="1">
          <mxGeometry x="-0.6435" relative="1" as="geometry">
            <Array as="points">
              <mxPoint x="-820" y="855" />
              <mxPoint x="-820" y="230" />
            </Array>
            <mxPoint x="-820" y="230" as="targetPoint" />
            <mxPoint as="offset" />
          </mxGeometry>
        </mxCell>
        <mxCell id="ykoWP7H_8N8HBuy1noUv-24" value="PuddleOfWater" style="html=1;whiteSpace=wrap;" parent="ykoWP7H_8N8HBuy1noUv-8" vertex="1">
          <mxGeometry x="-1130" y="830" width="110" height="50" as="geometry" />
        </mxCell>
        <mxCell id="ykoWP7H_8N8HBuy1noUv-25" style="edgeStyle=orthogonalEdgeStyle;rounded=0;orthogonalLoop=1;jettySize=auto;html=1;endArrow=block;endFill=0;fillColor=#dae8fc;strokeColor=#6c8ebf;entryX=0.5;entryY=1;entryDx=0;entryDy=0;" parent="ykoWP7H_8N8HBuy1noUv-8" source="ykoWP7H_8N8HBuy1noUv-27" target="ykoWP7H_8N8HBuy1noUv-44" edge="1">
          <mxGeometry relative="1" as="geometry">
            <Array as="points">
              <mxPoint x="-1865" y="750" />
            </Array>
          </mxGeometry>
        </mxCell>
        <mxCell id="ykoWP7H_8N8HBuy1noUv-26" value="extends" style="edgeLabel;html=1;align=center;verticalAlign=middle;resizable=0;points=[];" parent="ykoWP7H_8N8HBuy1noUv-25" connectable="0" vertex="1">
          <mxGeometry x="-0.0961" y="1" relative="1" as="geometry">
            <mxPoint x="71" as="offset" />
          </mxGeometry>
        </mxCell>
        <mxCell id="ykoWP7H_8N8HBuy1noUv-27" value="LoneWolf" style="html=1;whiteSpace=wrap;" parent="ykoWP7H_8N8HBuy1noUv-8" vertex="1">
          <mxGeometry x="-1630" y="730" width="110" height="50" as="geometry" />
        </mxCell>
        <mxCell id="ykoWP7H_8N8HBuy1noUv-28" style="edgeStyle=orthogonalEdgeStyle;rounded=0;orthogonalLoop=1;jettySize=auto;html=1;dashed=1;endArrow=open;endFill=0;" parent="ykoWP7H_8N8HBuy1noUv-8" source="ykoWP7H_8N8HBuy1noUv-34" target="ykoWP7H_8N8HBuy1noUv-18" edge="1">
          <mxGeometry relative="1" as="geometry">
            <Array as="points">
              <mxPoint x="-1580" y="710" />
              <mxPoint x="-220" y="710" />
            </Array>
            <mxPoint x="-1560" y="802.1899999999998" as="sourcePoint" />
            <mxPoint x="-90.75" y="759.9988235294118" as="targetPoint" />
          </mxGeometry>
        </mxCell>
        <mxCell id="ykoWP7H_8N8HBuy1noUv-29" value="&amp;lt;&amp;lt;uses&amp;gt;&amp;gt;" style="edgeLabel;html=1;align=center;verticalAlign=middle;resizable=0;points=[];" parent="ykoWP7H_8N8HBuy1noUv-28" connectable="0" vertex="1">
          <mxGeometry x="0.8507" relative="1" as="geometry">
            <mxPoint x="-363" as="offset" />
          </mxGeometry>
        </mxCell>
        <mxCell id="ykoWP7H_8N8HBuy1noUv-30" style="edgeStyle=orthogonalEdgeStyle;rounded=0;orthogonalLoop=1;jettySize=auto;html=1;entryX=0.75;entryY=1;entryDx=0;entryDy=0;endArrow=block;endFill=0;fillColor=#dae8fc;strokeColor=#6c8ebf;exitX=0;exitY=0.25;exitDx=0;exitDy=0;" parent="ykoWP7H_8N8HBuy1noUv-8" source="ykoWP7H_8N8HBuy1noUv-34" target="ykoWP7H_8N8HBuy1noUv-44" edge="1">
          <mxGeometry relative="1" as="geometry">
            <Array as="points">
              <mxPoint x="-1690" y="622" />
              <mxPoint x="-1837" y="622" />
            </Array>
          </mxGeometry>
        </mxCell>
        <mxCell id="ykoWP7H_8N8HBuy1noUv-31" value="extends" style="edgeLabel;html=1;align=center;verticalAlign=middle;resizable=0;points=[];" parent="ykoWP7H_8N8HBuy1noUv-30" connectable="0" vertex="1">
          <mxGeometry x="0.2582" y="-2" relative="1" as="geometry">
            <mxPoint x="60" as="offset" />
          </mxGeometry>
        </mxCell>
        <mxCell id="ykoWP7H_8N8HBuy1noUv-32" value="&amp;lt;&amp;lt;uses&amp;gt;&amp;gt;" style="edgeStyle=orthogonalEdgeStyle;rounded=0;orthogonalLoop=1;jettySize=auto;html=1;dashed=1;endArrow=open;endFill=0;exitX=0.391;exitY=-0.01;exitDx=0;exitDy=0;exitPerimeter=0;" parent="ykoWP7H_8N8HBuy1noUv-8" source="ykoWP7H_8N8HBuy1noUv-34" target="ykoWP7H_8N8HBuy1noUv-58" edge="1">
          <mxGeometry x="-0.6441" relative="1" as="geometry">
            <Array as="points">
              <mxPoint x="-1590" y="610" />
            </Array>
            <mxPoint as="offset" />
          </mxGeometry>
        </mxCell>
        <mxCell id="ykoWP7H_8N8HBuy1noUv-33" value="&amp;lt;&amp;lt;has&amp;gt;&amp;gt;" style="edgeLabel;html=1;align=center;verticalAlign=middle;resizable=0;points=[];" parent="ykoWP7H_8N8HBuy1noUv-32" connectable="0" vertex="1">
          <mxGeometry x="-0.1315" y="3" relative="1" as="geometry">
            <mxPoint y="-66" as="offset" />
          </mxGeometry>
        </mxCell>
        <mxCell id="ykoWP7H_8N8HBuy1noUv-34" value="HeavySkeletalSwordman" style="html=1;whiteSpace=wrap;" parent="ykoWP7H_8N8HBuy1noUv-8" vertex="1">
          <mxGeometry x="-1650" y="610" width="150" height="50" as="geometry" />
        </mxCell>
        <mxCell id="ykoWP7H_8N8HBuy1noUv-35" style="edgeStyle=orthogonalEdgeStyle;rounded=0;orthogonalLoop=1;jettySize=auto;html=1;entryX=0.25;entryY=1;entryDx=0;entryDy=0;endArrow=block;endFill=0;fillColor=#dae8fc;strokeColor=#6c8ebf;" parent="ykoWP7H_8N8HBuy1noUv-8" source="ykoWP7H_8N8HBuy1noUv-39" target="ykoWP7H_8N8HBuy1noUv-44" edge="1">
          <mxGeometry relative="1" as="geometry">
            <Array as="points">
              <mxPoint x="-1893" y="850" />
            </Array>
          </mxGeometry>
        </mxCell>
        <mxCell id="ykoWP7H_8N8HBuy1noUv-36" value="extends" style="edgeLabel;html=1;align=center;verticalAlign=middle;resizable=0;points=[];" parent="ykoWP7H_8N8HBuy1noUv-35" connectable="0" vertex="1">
          <mxGeometry x="-0.3317" y="-3" relative="1" as="geometry">
            <mxPoint x="62" as="offset" />
          </mxGeometry>
        </mxCell>
        <mxCell id="ykoWP7H_8N8HBuy1noUv-37" value="&amp;lt;&amp;lt;uses&amp;gt;&amp;gt;" style="edgeStyle=orthogonalEdgeStyle;rounded=0;orthogonalLoop=1;jettySize=auto;html=1;dashed=1;endArrow=open;endFill=0;" parent="ykoWP7H_8N8HBuy1noUv-8" source="ykoWP7H_8N8HBuy1noUv-39" target="ykoWP7H_8N8HBuy1noUv-61" edge="1">
          <mxGeometry relative="1" as="geometry">
            <Array as="points">
              <mxPoint x="-1575" y="900" />
              <mxPoint x="-410" y="900" />
            </Array>
          </mxGeometry>
        </mxCell>
        <mxCell id="ykoWP7H_8N8HBuy1noUv-38" value="&amp;lt;&amp;lt;uses&amp;gt;&amp;gt;" style="edgeLabel;html=1;align=center;verticalAlign=middle;resizable=0;points=[];" parent="ykoWP7H_8N8HBuy1noUv-37" connectable="0" vertex="1">
          <mxGeometry x="0.8364" y="4" relative="1" as="geometry">
            <mxPoint x="-286" y="4" as="offset" />
          </mxGeometry>
        </mxCell>
        <mxCell id="ykoWP7H_8N8HBuy1noUv-39" value="GiantCrab" style="html=1;whiteSpace=wrap;" parent="ykoWP7H_8N8HBuy1noUv-8" vertex="1">
          <mxGeometry x="-1630" y="820" width="110" height="50" as="geometry" />
        </mxCell>
        <mxCell id="ykoWP7H_8N8HBuy1noUv-40" style="edgeStyle=orthogonalEdgeStyle;rounded=0;orthogonalLoop=1;jettySize=auto;html=1;entryX=0.5;entryY=1;entryDx=0;entryDy=0;endArrow=block;endFill=0;strokeColor=#9999FF;" parent="ykoWP7H_8N8HBuy1noUv-8" source="ykoWP7H_8N8HBuy1noUv-44" target="ykoWP7H_8N8HBuy1noUv-52" edge="1">
          <mxGeometry relative="1" as="geometry" />
        </mxCell>
        <mxCell id="ykoWP7H_8N8HBuy1noUv-41" value="extends" style="edgeLabel;html=1;align=center;verticalAlign=middle;resizable=0;points=[];" parent="ykoWP7H_8N8HBuy1noUv-40" connectable="0" vertex="1">
          <mxGeometry x="0.2582" y="2" relative="1" as="geometry">
            <mxPoint as="offset" />
          </mxGeometry>
        </mxCell>
        <mxCell id="ykoWP7H_8N8HBuy1noUv-44" value="&lt;i&gt;&amp;lt;&amp;lt;abstract&amp;gt;&amp;gt;&lt;br&gt;Enemy&lt;/i&gt;" style="html=1;whiteSpace=wrap;" parent="ykoWP7H_8N8HBuy1noUv-8" vertex="1">
          <mxGeometry x="-1920" y="490" width="110" height="50" as="geometry" />
        </mxCell>
        <mxCell id="ykoWP7H_8N8HBuy1noUv-45" style="edgeStyle=orthogonalEdgeStyle;rounded=0;orthogonalLoop=1;jettySize=auto;html=1;strokeColor=none;dashed=1;" parent="ykoWP7H_8N8HBuy1noUv-8" source="ykoWP7H_8N8HBuy1noUv-78" target="ykoWP7H_8N8HBuy1noUv-72" edge="1">
          <mxGeometry relative="1" as="geometry" />
        </mxCell>
        <mxCell id="ykoWP7H_8N8HBuy1noUv-46" style="edgeStyle=orthogonalEdgeStyle;rounded=0;orthogonalLoop=1;jettySize=auto;html=1;strokeColor=#9999FF;endArrow=blockThin;endFill=0;" parent="ykoWP7H_8N8HBuy1noUv-8" source="ykoWP7H_8N8HBuy1noUv-49" target="ykoWP7H_8N8HBuy1noUv-50" edge="1">
          <mxGeometry relative="1" as="geometry">
            <Array as="points">
              <mxPoint x="-1340" y="850" />
              <mxPoint x="-1340" y="850" />
            </Array>
          </mxGeometry>
        </mxCell>
        <mxCell id="ykoWP7H_8N8HBuy1noUv-47" value="extends" style="edgeLabel;html=1;align=center;verticalAlign=middle;resizable=0;points=[];" parent="ykoWP7H_8N8HBuy1noUv-46" connectable="0" vertex="1">
          <mxGeometry x="0.9028" y="3" relative="1" as="geometry">
            <mxPoint as="offset" />
          </mxGeometry>
        </mxCell>
        <mxCell id="ykoWP7H_8N8HBuy1noUv-48" value="&amp;lt;&amp;lt;uses&amp;gt;&amp;gt;" style="edgeStyle=orthogonalEdgeStyle;rounded=0;orthogonalLoop=1;jettySize=auto;html=1;entryX=0.5;entryY=0;entryDx=0;entryDy=0;dashed=1;endArrow=open;endFill=0;" parent="ykoWP7H_8N8HBuy1noUv-8" source="ykoWP7H_8N8HBuy1noUv-49" target="ykoWP7H_8N8HBuy1noUv-89" edge="1">
          <mxGeometry relative="1" as="geometry">
            <Array as="points">
              <mxPoint x="-1390" y="1390" />
              <mxPoint x="-1295" y="1390" />
            </Array>
          </mxGeometry>
        </mxCell>
        <mxCell id="ykoWP7H_8N8HBuy1noUv-49" value="AttackSurroundingAction" style="html=1;whiteSpace=wrap;" parent="ykoWP7H_8N8HBuy1noUv-8" vertex="1">
          <mxGeometry x="-1480" y="1285" width="160" height="50" as="geometry" />
        </mxCell>
        <mxCell id="ykoWP7H_8N8HBuy1noUv-50" value="&lt;i&gt;&amp;lt;&amp;lt;abstract&amp;gt;&amp;gt;&lt;br&gt;Action&lt;/i&gt;" style="html=1;whiteSpace=wrap;" parent="ykoWP7H_8N8HBuy1noUv-8" vertex="1">
          <mxGeometry x="-1360" y="180" width="110" height="50" as="geometry" />
        </mxCell>
        <mxCell id="ykoWP7H_8N8HBuy1noUv-51" value="&lt;i&gt;&amp;lt;&amp;lt;abstract&amp;gt;&amp;gt;&lt;br&gt;Ground&lt;/i&gt;" style="html=1;whiteSpace=wrap;" parent="ykoWP7H_8N8HBuy1noUv-8" vertex="1">
          <mxGeometry x="-910" y="180" width="110" height="50" as="geometry" />
        </mxCell>
        <mxCell id="ykoWP7H_8N8HBuy1noUv-52" value="&lt;i&gt;&amp;lt;&amp;lt;abstract&amp;gt;&amp;gt;&lt;br&gt;Actor&lt;/i&gt;" style="html=1;whiteSpace=wrap;" parent="ykoWP7H_8N8HBuy1noUv-8" vertex="1">
          <mxGeometry x="-1920" y="180" width="110" height="50" as="geometry" />
        </mxCell>
        <mxCell id="ykoWP7H_8N8HBuy1noUv-53" value="&lt;i&gt;&amp;lt;&amp;lt;abstract&amp;gt;&amp;gt;&lt;br&gt;WeaponItem&lt;/i&gt;" style="html=1;whiteSpace=wrap;" parent="ykoWP7H_8N8HBuy1noUv-8" vertex="1">
          <mxGeometry x="-150" y="180" width="110" height="50" as="geometry" />
        </mxCell>
        <mxCell id="ykoWP7H_8N8HBuy1noUv-54" value="action" style="text;html=1;strokeColor=none;fillColor=none;align=center;verticalAlign=middle;whiteSpace=wrap;rounded=0;" parent="ykoWP7H_8N8HBuy1noUv-8" vertex="1">
          <mxGeometry x="-1520" y="1130" width="110" height="30" as="geometry" />
        </mxCell>
        <mxCell id="ykoWP7H_8N8HBuy1noUv-55" value="enemy" style="text;html=1;strokeColor=none;fillColor=none;align=center;verticalAlign=middle;whiteSpace=wrap;rounded=0;" parent="ykoWP7H_8N8HBuy1noUv-8" vertex="1">
          <mxGeometry x="-2080" y="430" width="110" height="30" as="geometry" />
        </mxCell>
        <mxCell id="ykoWP7H_8N8HBuy1noUv-56" style="edgeStyle=orthogonalEdgeStyle;rounded=0;orthogonalLoop=1;jettySize=auto;html=1;dashed=1;endArrow=open;endFill=0;" parent="ykoWP7H_8N8HBuy1noUv-8" source="ykoWP7H_8N8HBuy1noUv-58" edge="1">
          <mxGeometry relative="1" as="geometry">
            <Array as="points">
              <mxPoint x="-1550" y="610" />
              <mxPoint x="-1550" y="610" />
            </Array>
            <mxPoint x="-1550" y="610" as="targetPoint" />
          </mxGeometry>
        </mxCell>
        <mxCell id="ykoWP7H_8N8HBuy1noUv-57" value="&amp;lt;&amp;lt;uses&amp;gt;&amp;gt;" style="edgeLabel;html=1;align=center;verticalAlign=middle;resizable=0;points=[];" parent="ykoWP7H_8N8HBuy1noUv-56" connectable="0" vertex="1">
          <mxGeometry x="-0.2784" y="1" relative="1" as="geometry">
            <mxPoint y="-12" as="offset" />
          </mxGeometry>
        </mxCell>
        <mxCell id="ykoWP7H_8N8HBuy1noUv-58" value="PileOfBones" style="html=1;whiteSpace=wrap;" parent="ykoWP7H_8N8HBuy1noUv-8" vertex="1">
          <mxGeometry x="-1630" y="500" width="110" height="50" as="geometry" />
        </mxCell>
        <mxCell id="ykoWP7H_8N8HBuy1noUv-59" style="edgeStyle=orthogonalEdgeStyle;rounded=0;orthogonalLoop=1;jettySize=auto;html=1;strokeColor=#9999FF;endArrow=blockThin;endFill=0;" parent="ykoWP7H_8N8HBuy1noUv-8" source="ykoWP7H_8N8HBuy1noUv-61" target="ykoWP7H_8N8HBuy1noUv-53" edge="1">
          <mxGeometry relative="1" as="geometry">
            <Array as="points">
              <mxPoint x="-380" y="190" />
            </Array>
            <mxPoint x="-533" y="220" as="targetPoint" />
          </mxGeometry>
        </mxCell>
        <mxCell id="ykoWP7H_8N8HBuy1noUv-60" value="extends" style="edgeLabel;html=1;align=center;verticalAlign=middle;resizable=0;points=[];" parent="ykoWP7H_8N8HBuy1noUv-59" connectable="0" vertex="1">
          <mxGeometry x="0.135" y="2" relative="1" as="geometry">
            <mxPoint x="2" y="238" as="offset" />
          </mxGeometry>
        </mxCell>
        <mxCell id="ykoWP7H_8N8HBuy1noUv-61" value="CrabSlam" style="html=1;whiteSpace=wrap;" parent="ykoWP7H_8N8HBuy1noUv-8" vertex="1">
          <mxGeometry x="-490" y="590" width="150" height="50" as="geometry" />
        </mxCell>
        <mxCell id="ykoWP7H_8N8HBuy1noUv-62" value="has" style="endArrow=none;html=1;endSize=12;startArrow=open;startSize=14;startFill=0;edgeStyle=orthogonalEdgeStyle;rounded=0;endFill=0;" parent="ykoWP7H_8N8HBuy1noUv-8" source="ykoWP7H_8N8HBuy1noUv-27" target="ykoWP7H_8N8HBuy1noUv-22" edge="1">
          <mxGeometry x="0.7436" relative="1" as="geometry">
            <mxPoint x="-1220" y="800" as="sourcePoint" />
            <mxPoint x="-1060" y="800" as="targetPoint" />
            <Array as="points">
              <mxPoint x="-1300" y="755" />
              <mxPoint x="-1300" y="755" />
            </Array>
            <mxPoint as="offset" />
          </mxGeometry>
        </mxCell>
        <mxCell id="ykoWP7H_8N8HBuy1noUv-63" value="0..*" style="edgeLabel;resizable=0;html=1;align=left;verticalAlign=top;" parent="ykoWP7H_8N8HBuy1noUv-62" connectable="0" vertex="1">
          <mxGeometry x="-1" relative="1" as="geometry">
            <mxPoint x="50" as="offset" />
          </mxGeometry>
        </mxCell>
        <mxCell id="ykoWP7H_8N8HBuy1noUv-64" value="1" style="edgeLabel;resizable=0;html=1;align=right;verticalAlign=top;" parent="ykoWP7H_8N8HBuy1noUv-62" connectable="0" vertex="1">
          <mxGeometry x="1" relative="1" as="geometry">
            <mxPoint x="-10" y="10" as="offset" />
          </mxGeometry>
        </mxCell>
        <mxCell id="ykoWP7H_8N8HBuy1noUv-65" value="has" style="endArrow=none;html=1;endSize=12;startArrow=open;startSize=14;startFill=0;edgeStyle=orthogonalEdgeStyle;rounded=0;endFill=0;" parent="ykoWP7H_8N8HBuy1noUv-8" source="ykoWP7H_8N8HBuy1noUv-34" target="ykoWP7H_8N8HBuy1noUv-20" edge="1">
          <mxGeometry x="0.7297" relative="1" as="geometry">
            <mxPoint x="-1450" y="750" as="sourcePoint" />
            <mxPoint x="-1160" y="725" as="targetPoint" />
            <Array as="points">
              <mxPoint x="-1320" y="640" />
              <mxPoint x="-1320" y="640" />
            </Array>
            <mxPoint as="offset" />
          </mxGeometry>
        </mxCell>
        <mxCell id="ykoWP7H_8N8HBuy1noUv-66" value="0..*" style="edgeLabel;resizable=0;html=1;align=left;verticalAlign=top;" parent="ykoWP7H_8N8HBuy1noUv-65" connectable="0" vertex="1">
          <mxGeometry x="-1" relative="1" as="geometry">
            <mxPoint x="30" as="offset" />
          </mxGeometry>
        </mxCell>
        <mxCell id="ykoWP7H_8N8HBuy1noUv-67" value="1" style="edgeLabel;resizable=0;html=1;align=right;verticalAlign=top;" parent="ykoWP7H_8N8HBuy1noUv-65" connectable="0" vertex="1">
          <mxGeometry x="1" relative="1" as="geometry">
            <mxPoint x="-10" as="offset" />
          </mxGeometry>
        </mxCell>
        <mxCell id="ykoWP7H_8N8HBuy1noUv-68" value="has" style="endArrow=none;html=1;endSize=12;startArrow=open;startSize=14;startFill=0;edgeStyle=orthogonalEdgeStyle;rounded=0;endFill=0;" parent="ykoWP7H_8N8HBuy1noUv-8" source="ykoWP7H_8N8HBuy1noUv-39" target="ykoWP7H_8N8HBuy1noUv-24" edge="1">
          <mxGeometry x="0.7436" relative="1" as="geometry">
            <mxPoint x="-1500" y="1035" as="sourcePoint" />
            <mxPoint x="-1130" y="1020" as="targetPoint" />
            <Array as="points">
              <mxPoint x="-1220" y="850" />
              <mxPoint x="-1220" y="850" />
            </Array>
            <mxPoint as="offset" />
          </mxGeometry>
        </mxCell>
        <mxCell id="ykoWP7H_8N8HBuy1noUv-69" value="0..*" style="edgeLabel;resizable=0;html=1;align=left;verticalAlign=top;" parent="ykoWP7H_8N8HBuy1noUv-68" connectable="0" vertex="1">
          <mxGeometry x="-1" relative="1" as="geometry">
            <mxPoint x="40" as="offset" />
          </mxGeometry>
        </mxCell>
        <mxCell id="ykoWP7H_8N8HBuy1noUv-70" value="1" style="edgeLabel;resizable=0;html=1;align=right;verticalAlign=top;" parent="ykoWP7H_8N8HBuy1noUv-68" connectable="0" vertex="1">
          <mxGeometry x="1" relative="1" as="geometry">
            <mxPoint x="-10" as="offset" />
          </mxGeometry>
        </mxCell>
        <mxCell id="ykoWP7H_8N8HBuy1noUv-71" value="" style="shape=folder;fontStyle=1;spacingTop=10;tabWidth=110;tabHeight=30;tabPosition=left;html=1;whiteSpace=wrap;" parent="ykoWP7H_8N8HBuy1noUv-8" vertex="1">
          <mxGeometry x="-2290" y="1030" width="700" height="350" as="geometry" />
        </mxCell>
        <mxCell id="ykoWP7H_8N8HBuy1noUv-72" value="&amp;lt;&amp;lt;interface&amp;gt;&amp;gt;&lt;br&gt;Behaviour" style="html=1;whiteSpace=wrap;" parent="ykoWP7H_8N8HBuy1noUv-8" vertex="1">
          <mxGeometry x="-2010" y="1090" width="110" height="50" as="geometry" />
        </mxCell>
        <mxCell id="ykoWP7H_8N8HBuy1noUv-73" style="edgeStyle=orthogonalEdgeStyle;rounded=0;orthogonalLoop=1;jettySize=auto;html=1;dashed=1;endArrow=block;endFill=0;" parent="ykoWP7H_8N8HBuy1noUv-8" source="ykoWP7H_8N8HBuy1noUv-75" target="ykoWP7H_8N8HBuy1noUv-72" edge="1">
          <mxGeometry relative="1" as="geometry" />
        </mxCell>
        <mxCell id="ykoWP7H_8N8HBuy1noUv-74" value="implements" style="edgeLabel;html=1;align=center;verticalAlign=middle;resizable=0;points=[];" parent="ykoWP7H_8N8HBuy1noUv-73" connectable="0" vertex="1">
          <mxGeometry x="-0.1857" y="2" relative="1" as="geometry">
            <mxPoint as="offset" />
          </mxGeometry>
        </mxCell>
        <mxCell id="ykoWP7H_8N8HBuy1noUv-75" value="WanderBehaviour" style="html=1;whiteSpace=wrap;" parent="ykoWP7H_8N8HBuy1noUv-8" vertex="1">
          <mxGeometry x="-2010" y="1280" width="110" height="50" as="geometry" />
        </mxCell>
        <mxCell id="ykoWP7H_8N8HBuy1noUv-76" style="edgeStyle=orthogonalEdgeStyle;rounded=0;orthogonalLoop=1;jettySize=auto;html=1;entryX=0;entryY=0.5;entryDx=0;entryDy=0;dashed=1;endArrow=block;endFill=0;" parent="ykoWP7H_8N8HBuy1noUv-8" source="ykoWP7H_8N8HBuy1noUv-78" target="ykoWP7H_8N8HBuy1noUv-72" edge="1">
          <mxGeometry relative="1" as="geometry">
            <Array as="points">
              <mxPoint x="-2180" y="1115" />
            </Array>
          </mxGeometry>
        </mxCell>
        <mxCell id="ykoWP7H_8N8HBuy1noUv-77" value="implements" style="edgeLabel;html=1;align=center;verticalAlign=middle;resizable=0;points=[];" parent="ykoWP7H_8N8HBuy1noUv-76" connectable="0" vertex="1">
          <mxGeometry x="-0.6537" y="-1" relative="1" as="geometry">
            <mxPoint y="3" as="offset" />
          </mxGeometry>
        </mxCell>
        <mxCell id="ykoWP7H_8N8HBuy1noUv-78" value="FollowBehaviour" style="html=1;whiteSpace=wrap;" parent="ykoWP7H_8N8HBuy1noUv-8" vertex="1">
          <mxGeometry x="-2230" y="1280" width="110" height="50" as="geometry" />
        </mxCell>
        <mxCell id="ykoWP7H_8N8HBuy1noUv-79" style="edgeStyle=orthogonalEdgeStyle;rounded=0;orthogonalLoop=1;jettySize=auto;html=1;entryX=1;entryY=0.5;entryDx=0;entryDy=0;dashed=1;endArrow=block;endFill=0;" parent="ykoWP7H_8N8HBuy1noUv-8" source="ykoWP7H_8N8HBuy1noUv-85" target="ykoWP7H_8N8HBuy1noUv-72" edge="1">
          <mxGeometry relative="1" as="geometry">
            <Array as="points">
              <mxPoint x="-1730" y="1115" />
            </Array>
          </mxGeometry>
        </mxCell>
        <mxCell id="ykoWP7H_8N8HBuy1noUv-80" value="implements" style="edgeLabel;html=1;align=center;verticalAlign=middle;resizable=0;points=[];" parent="ykoWP7H_8N8HBuy1noUv-79" connectable="0" vertex="1">
          <mxGeometry x="-0.7134" y="2" relative="1" as="geometry">
            <mxPoint x="-3" y="-7" as="offset" />
          </mxGeometry>
        </mxCell>
        <mxCell id="ykoWP7H_8N8HBuy1noUv-81" style="edgeStyle=orthogonalEdgeStyle;rounded=0;orthogonalLoop=1;jettySize=auto;html=1;dashed=1;endArrow=open;endFill=0;" parent="ykoWP7H_8N8HBuy1noUv-8" source="ykoWP7H_8N8HBuy1noUv-85" target="ykoWP7H_8N8HBuy1noUv-89" edge="1">
          <mxGeometry relative="1" as="geometry">
            <Array as="points">
              <mxPoint x="-1735" y="1450" />
            </Array>
          </mxGeometry>
        </mxCell>
        <mxCell id="ykoWP7H_8N8HBuy1noUv-82" value="&amp;lt;&amp;lt;uses&amp;gt;&amp;gt;" style="edgeLabel;html=1;align=center;verticalAlign=middle;resizable=0;points=[];" parent="ykoWP7H_8N8HBuy1noUv-81" connectable="0" vertex="1">
          <mxGeometry x="0.2126" y="-3" relative="1" as="geometry">
            <mxPoint as="offset" />
          </mxGeometry>
        </mxCell>
        <mxCell id="ykoWP7H_8N8HBuy1noUv-83" style="edgeStyle=orthogonalEdgeStyle;rounded=0;orthogonalLoop=1;jettySize=auto;html=1;dashed=1;endArrow=open;endFill=0;entryX=0;entryY=0.5;entryDx=0;entryDy=0;" parent="ykoWP7H_8N8HBuy1noUv-8" source="ykoWP7H_8N8HBuy1noUv-85" target="ykoWP7H_8N8HBuy1noUv-49" edge="1">
          <mxGeometry relative="1" as="geometry">
            <mxPoint x="-1470" y="1210" as="targetPoint" />
            <Array as="points">
              <mxPoint x="-1480" y="1310" />
            </Array>
          </mxGeometry>
        </mxCell>
        <mxCell id="ykoWP7H_8N8HBuy1noUv-84" value="&amp;lt;&amp;lt;uses&amp;gt;&amp;gt;" style="edgeLabel;html=1;align=center;verticalAlign=middle;resizable=0;points=[];" parent="ykoWP7H_8N8HBuy1noUv-83" connectable="0" vertex="1">
          <mxGeometry x="0.5486" y="1" relative="1" as="geometry">
            <mxPoint as="offset" />
          </mxGeometry>
        </mxCell>
        <mxCell id="ykoWP7H_8N8HBuy1noUv-85" value="AttackBehaviour" style="html=1;whiteSpace=wrap;" parent="ykoWP7H_8N8HBuy1noUv-8" vertex="1">
          <mxGeometry x="-1800" y="1280" width="110" height="50" as="geometry" />
        </mxCell>
        <mxCell id="ykoWP7H_8N8HBuy1noUv-86" value="behaviour" style="text;html=1;strokeColor=none;fillColor=none;align=center;verticalAlign=middle;whiteSpace=wrap;rounded=0;" parent="ykoWP7H_8N8HBuy1noUv-8" vertex="1">
          <mxGeometry x="-2290" y="1030" width="110" height="30" as="geometry" />
        </mxCell>
        <mxCell id="ykoWP7H_8N8HBuy1noUv-87" style="edgeStyle=orthogonalEdgeStyle;rounded=0;orthogonalLoop=1;jettySize=auto;html=1;endArrow=blockThin;endFill=0;strokeColor=#9999FF;" parent="ykoWP7H_8N8HBuy1noUv-8" source="ykoWP7H_8N8HBuy1noUv-89" target="ykoWP7H_8N8HBuy1noUv-50" edge="1">
          <mxGeometry relative="1" as="geometry">
            <mxPoint x="-2180" y="300" as="targetPoint" />
            <Array as="points">
              <mxPoint x="-1260" y="760" />
              <mxPoint x="-1260" y="760" />
            </Array>
          </mxGeometry>
        </mxCell>
        <mxCell id="ykoWP7H_8N8HBuy1noUv-88" value="extends" style="edgeLabel;html=1;align=center;verticalAlign=middle;resizable=0;points=[];" parent="ykoWP7H_8N8HBuy1noUv-87" connectable="0" vertex="1">
          <mxGeometry x="0.9244" relative="1" as="geometry">
            <mxPoint as="offset" />
          </mxGeometry>
        </mxCell>
        <mxCell id="ykoWP7H_8N8HBuy1noUv-89" value="AttackAction" style="html=1;whiteSpace=wrap;" parent="ykoWP7H_8N8HBuy1noUv-8" vertex="1">
          <mxGeometry x="-1350" y="1420" width="110" height="50" as="geometry" />
        </mxCell>
        <mxCell id="ykoWP7H_8N8HBuy1noUv-90" value="has" style="endArrow=open;html=1;endSize=12;startArrow=none;startSize=14;startFill=0;edgeStyle=orthogonalEdgeStyle;rounded=0;exitX=-0.003;exitY=0.6;exitDx=0;exitDy=0;exitPerimeter=0;" parent="ykoWP7H_8N8HBuy1noUv-8" source="ykoWP7H_8N8HBuy1noUv-44" target="ykoWP7H_8N8HBuy1noUv-72" edge="1">
          <mxGeometry relative="1" as="geometry">
            <mxPoint x="-1915" y="515" as="sourcePoint" />
            <mxPoint x="-2050" y="1290" as="targetPoint" />
            <Array as="points">
              <mxPoint x="-1920" y="530" />
              <mxPoint x="-1955" y="530" />
            </Array>
          </mxGeometry>
        </mxCell>
        <mxCell id="ykoWP7H_8N8HBuy1noUv-91" value="1" style="edgeLabel;resizable=0;html=1;align=left;verticalAlign=top;" parent="ykoWP7H_8N8HBuy1noUv-90" connectable="0" vertex="1">
          <mxGeometry x="-1" relative="1" as="geometry">
            <mxPoint x="-20" y="20" as="offset" />
          </mxGeometry>
        </mxCell>
        <mxCell id="ykoWP7H_8N8HBuy1noUv-92" value="0..*" style="edgeLabel;resizable=0;html=1;align=right;verticalAlign=top;" parent="ykoWP7H_8N8HBuy1noUv-90" connectable="0" vertex="1">
          <mxGeometry x="1" relative="1" as="geometry">
            <mxPoint x="35" y="-30" as="offset" />
          </mxGeometry>
        </mxCell>
        <mxCell id="ykoWP7H_8N8HBuy1noUv-93" style="edgeStyle=orthogonalEdgeStyle;rounded=0;orthogonalLoop=1;jettySize=auto;html=1;exitX=0.5;exitY=1;exitDx=0;exitDy=0;" parent="ykoWP7H_8N8HBuy1noUv-8" source="ykoWP7H_8N8HBuy1noUv-50" target="ykoWP7H_8N8HBuy1noUv-50" edge="1">
          <mxGeometry relative="1" as="geometry" />
        </mxCell>
        <mxCell id="ykoWP7H_8N8HBuy1noUv-94" value="&lt;i&gt;&amp;lt;&amp;lt;abstract&amp;gt;&amp;gt;&lt;br&gt;PickUpAction&lt;/i&gt;" style="html=1;whiteSpace=wrap;" parent="ykoWP7H_8N8HBuy1noUv-8" vertex="1">
          <mxGeometry x="-660" y="180" width="110" height="50" as="geometry" />
        </mxCell>
        <mxCell id="ykoWP7H_8N8HBuy1noUv-95" value="&lt;i&gt;&amp;lt;&amp;lt;abstract&amp;gt;&amp;gt;&lt;br&gt;DropAction&lt;/i&gt;" style="html=1;whiteSpace=wrap;" parent="ykoWP7H_8N8HBuy1noUv-8" vertex="1">
          <mxGeometry x="-790" y="180" width="110" height="50" as="geometry" />
        </mxCell>
        <mxCell id="ykoWP7H_8N8HBuy1noUv-96" value="" style="shape=folder;fontStyle=1;spacingTop=10;tabWidth=110;tabHeight=30;tabPosition=left;html=1;whiteSpace=wrap;" parent="ykoWP7H_8N8HBuy1noUv-8" vertex="1">
          <mxGeometry x="-1120" y="1340" width="420" height="270" as="geometry" />
        </mxCell>
        <mxCell id="ykoWP7H_8N8HBuy1noUv-97" value="rune" style="text;html=1;strokeColor=none;fillColor=none;align=center;verticalAlign=middle;whiteSpace=wrap;rounded=0;" parent="ykoWP7H_8N8HBuy1noUv-8" vertex="1">
          <mxGeometry x="-1120" y="1340" width="110" height="30" as="geometry" />
        </mxCell>
        <mxCell id="ykoWP7H_8N8HBuy1noUv-98" value="Player" style="html=1;whiteSpace=wrap;" parent="ykoWP7H_8N8HBuy1noUv-8" vertex="1">
          <mxGeometry x="-1110" y="1060" width="110" height="50" as="geometry" />
        </mxCell>
        <mxCell id="ykoWP7H_8N8HBuy1noUv-99" value="Rune" style="html=1;whiteSpace=wrap;" parent="ykoWP7H_8N8HBuy1noUv-8" vertex="1">
          <mxGeometry x="-980" y="1500" width="110" height="50" as="geometry" />
        </mxCell>
        <mxCell id="ykoWP7H_8N8HBuy1noUv-100" value="DropRuneAction" style="html=1;whiteSpace=wrap;" parent="ykoWP7H_8N8HBuy1noUv-8" vertex="1">
          <mxGeometry x="-1090" y="1420" width="110" height="50" as="geometry" />
        </mxCell>
        <mxCell id="ykoWP7H_8N8HBuy1noUv-101" value="extends" style="edgeStyle=orthogonalEdgeStyle;rounded=0;orthogonalLoop=1;jettySize=auto;html=1;fillColor=#dae8fc;strokeColor=#6c8ebf;endArrow=blockThin;endFill=0;" parent="ykoWP7H_8N8HBuy1noUv-8" source="ykoWP7H_8N8HBuy1noUv-102" target="ykoWP7H_8N8HBuy1noUv-94" edge="1">
          <mxGeometry x="-0.8614" relative="1" as="geometry">
            <mxPoint as="offset" />
          </mxGeometry>
        </mxCell>
        <mxCell id="ykoWP7H_8N8HBuy1noUv-102" value="PickUpRuneAction" style="html=1;whiteSpace=wrap;" parent="ykoWP7H_8N8HBuy1noUv-8" vertex="1">
          <mxGeometry x="-830" y="1420" width="110" height="50" as="geometry" />
        </mxCell>
        <mxCell id="ykoWP7H_8N8HBuy1noUv-103" value="stores" style="endArrow=open;html=1;endSize=12;startArrow=none;startSize=14;startFill=0;edgeStyle=orthogonalEdgeStyle;rounded=0;entryX=0.5;entryY=1;entryDx=0;entryDy=0;" parent="ykoWP7H_8N8HBuy1noUv-8" source="ykoWP7H_8N8HBuy1noUv-98" target="ykoWP7H_8N8HBuy1noUv-99" edge="1">
          <mxGeometry relative="1" as="geometry">
            <mxPoint x="-910.5" y="1070" as="sourcePoint" />
            <mxPoint x="-910" y="1320" as="targetPoint" />
            <Array as="points">
              <mxPoint x="-1150" y="1100" />
              <mxPoint x="-1150" y="1590" />
              <mxPoint x="-925" y="1590" />
            </Array>
          </mxGeometry>
        </mxCell>
        <mxCell id="ykoWP7H_8N8HBuy1noUv-104" value="1" style="edgeLabel;resizable=0;html=1;align=left;verticalAlign=top;" parent="ykoWP7H_8N8HBuy1noUv-103" connectable="0" vertex="1">
          <mxGeometry x="-1" relative="1" as="geometry">
            <mxPoint x="-15" y="10" as="offset" />
          </mxGeometry>
        </mxCell>
        <mxCell id="ykoWP7H_8N8HBuy1noUv-105" value="1" style="edgeLabel;resizable=0;html=1;align=right;verticalAlign=top;" parent="ykoWP7H_8N8HBuy1noUv-103" connectable="0" vertex="1">
          <mxGeometry x="1" relative="1" as="geometry">
            <mxPoint x="25" y="10" as="offset" />
          </mxGeometry>
        </mxCell>
        <mxCell id="ykoWP7H_8N8HBuy1noUv-106" value="has" style="endArrow=open;html=1;endSize=12;startArrow=none;startSize=14;startFill=0;edgeStyle=orthogonalEdgeStyle;rounded=0;exitX=0.5;exitY=1;exitDx=0;exitDy=0;entryX=0;entryY=0.5;entryDx=0;entryDy=0;" parent="ykoWP7H_8N8HBuy1noUv-8" source="ykoWP7H_8N8HBuy1noUv-100" target="ykoWP7H_8N8HBuy1noUv-99" edge="1">
          <mxGeometry x="-0.1351" relative="1" as="geometry">
            <mxPoint x="-1045.5" y="1290" as="sourcePoint" />
            <mxPoint x="-1045.5" y="1680" as="targetPoint" />
            <mxPoint as="offset" />
          </mxGeometry>
        </mxCell>
        <mxCell id="ykoWP7H_8N8HBuy1noUv-107" value="1" style="edgeLabel;resizable=0;html=1;align=left;verticalAlign=top;" parent="ykoWP7H_8N8HBuy1noUv-106" connectable="0" vertex="1">
          <mxGeometry x="-1" relative="1" as="geometry">
            <mxPoint x="-15" as="offset" />
          </mxGeometry>
        </mxCell>
        <mxCell id="ykoWP7H_8N8HBuy1noUv-108" value="1" style="edgeLabel;resizable=0;html=1;align=right;verticalAlign=top;" parent="ykoWP7H_8N8HBuy1noUv-106" connectable="0" vertex="1">
          <mxGeometry x="1" relative="1" as="geometry">
            <mxPoint x="-25" y="5" as="offset" />
          </mxGeometry>
        </mxCell>
        <mxCell id="ykoWP7H_8N8HBuy1noUv-109" value="has" style="endArrow=open;html=1;endSize=12;startArrow=none;startSize=14;startFill=0;edgeStyle=orthogonalEdgeStyle;rounded=0;entryX=1;entryY=0.5;entryDx=0;entryDy=0;exitX=0.5;exitY=1;exitDx=0;exitDy=0;" parent="ykoWP7H_8N8HBuy1noUv-8" source="ykoWP7H_8N8HBuy1noUv-102" target="ykoWP7H_8N8HBuy1noUv-99" edge="1">
          <mxGeometry x="-0.1351" relative="1" as="geometry">
            <mxPoint x="-810" y="1300" as="sourcePoint" />
            <mxPoint x="-730" y="1405" as="targetPoint" />
            <mxPoint as="offset" />
            <Array as="points">
              <mxPoint x="-775" y="1525" />
            </Array>
          </mxGeometry>
        </mxCell>
        <mxCell id="ykoWP7H_8N8HBuy1noUv-110" value="1" style="edgeLabel;resizable=0;html=1;align=left;verticalAlign=top;" parent="ykoWP7H_8N8HBuy1noUv-109" connectable="0" vertex="1">
          <mxGeometry x="-1" relative="1" as="geometry">
            <mxPoint x="5" y="10" as="offset" />
          </mxGeometry>
        </mxCell>
        <mxCell id="ykoWP7H_8N8HBuy1noUv-111" value="1" style="edgeLabel;resizable=0;html=1;align=right;verticalAlign=top;" parent="ykoWP7H_8N8HBuy1noUv-109" connectable="0" vertex="1">
          <mxGeometry x="1" relative="1" as="geometry">
            <mxPoint x="35" y="5" as="offset" />
          </mxGeometry>
        </mxCell>
        <mxCell id="ykoWP7H_8N8HBuy1noUv-112" style="edgeStyle=orthogonalEdgeStyle;rounded=0;orthogonalLoop=1;jettySize=auto;html=1;endArrow=blockThin;endFill=0;strokeColor=#9999FF;" parent="ykoWP7H_8N8HBuy1noUv-8" source="ykoWP7H_8N8HBuy1noUv-98" target="ykoWP7H_8N8HBuy1noUv-52" edge="1">
          <mxGeometry relative="1" as="geometry">
            <mxPoint x="-1440" y="300" as="targetPoint" />
            <Array as="points">
              <mxPoint x="-1300" y="1085" />
              <mxPoint x="-1300" y="330" />
              <mxPoint x="-1840" y="330" />
            </Array>
            <mxPoint x="-1440" y="1260" as="sourcePoint" />
          </mxGeometry>
        </mxCell>
        <mxCell id="ykoWP7H_8N8HBuy1noUv-113" value="extends" style="edgeLabel;html=1;align=center;verticalAlign=middle;resizable=0;points=[];" parent="ykoWP7H_8N8HBuy1noUv-112" connectable="0" vertex="1">
          <mxGeometry x="0.9244" relative="1" as="geometry">
            <mxPoint x="650" y="800" as="offset" />
          </mxGeometry>
        </mxCell>
        <mxCell id="ykoWP7H_8N8HBuy1noUv-114" style="edgeStyle=orthogonalEdgeStyle;rounded=0;orthogonalLoop=1;jettySize=auto;html=1;endArrow=blockThin;endFill=0;strokeColor=#9999FF;entryX=0.5;entryY=1;entryDx=0;entryDy=0;" parent="ykoWP7H_8N8HBuy1noUv-8" source="ykoWP7H_8N8HBuy1noUv-100" target="ykoWP7H_8N8HBuy1noUv-95" edge="1">
          <mxGeometry relative="1" as="geometry">
            <mxPoint x="-1800" y="305" as="targetPoint" />
            <Array as="points">
              <mxPoint x="-1045" y="1390" />
              <mxPoint x="-735" y="1390" />
            </Array>
            <mxPoint x="-955" y="1015" as="sourcePoint" />
          </mxGeometry>
        </mxCell>
        <mxCell id="ykoWP7H_8N8HBuy1noUv-115" value="extends" style="edgeLabel;html=1;align=center;verticalAlign=middle;resizable=0;points=[];" parent="ykoWP7H_8N8HBuy1noUv-114" vertex="1" connectable="0">
          <mxGeometry x="-0.547" y="-3" relative="1" as="geometry">
            <mxPoint x="-53" y="-3" as="offset" />
          </mxGeometry>
        </mxCell>
        <mxCell id="ykoWP7H_8N8HBuy1noUv-116" value="extends" style="edgeStyle=orthogonalEdgeStyle;rounded=0;orthogonalLoop=1;jettySize=auto;html=1;endArrow=blockThin;endFill=0;fillColor=#dae8fc;strokeColor=#6c8ebf;" parent="ykoWP7H_8N8HBuy1noUv-8" source="ykoWP7H_8N8HBuy1noUv-119" target="ykoWP7H_8N8HBuy1noUv-52" edge="1">
          <mxGeometry x="-0.9153" relative="1" as="geometry">
            <mxPoint x="-1830" y="220" as="targetPoint" />
            <Array as="points">
              <mxPoint x="-660" y="1060" />
              <mxPoint x="-660" y="310" />
              <mxPoint x="-1820" y="310" />
            </Array>
            <mxPoint as="offset" />
          </mxGeometry>
        </mxCell>
        <mxCell id="ykoWP7H_8N8HBuy1noUv-117" value="&amp;lt;&amp;lt;uses&amp;gt;&amp;gt;" style="edgeStyle=orthogonalEdgeStyle;rounded=0;orthogonalLoop=1;jettySize=auto;html=1;dashed=1;endArrow=open;endFill=0;" parent="ykoWP7H_8N8HBuy1noUv-8" source="ykoWP7H_8N8HBuy1noUv-119" target="ykoWP7H_8N8HBuy1noUv-134" edge="1">
          <mxGeometry x="0.5238" relative="1" as="geometry">
            <Array as="points">
              <mxPoint x="-25" y="1045" />
            </Array>
            <mxPoint as="offset" />
          </mxGeometry>
        </mxCell>
        <mxCell id="ykoWP7H_8N8HBuy1noUv-118" value="&amp;lt;&amp;lt;uses&amp;gt;&amp;gt;" style="edgeStyle=orthogonalEdgeStyle;rounded=0;orthogonalLoop=1;jettySize=auto;html=1;entryX=0.5;entryY=1;entryDx=0;entryDy=0;dashed=1;endArrow=open;endFill=0;" parent="ykoWP7H_8N8HBuy1noUv-8" source="ykoWP7H_8N8HBuy1noUv-119" target="ykoWP7H_8N8HBuy1noUv-135" edge="1">
          <mxGeometry x="0.0833" relative="1" as="geometry">
            <Array as="points">
              <mxPoint x="-315" y="1045" />
            </Array>
            <mxPoint as="offset" />
          </mxGeometry>
        </mxCell>
        <mxCell id="ykoWP7H_8N8HBuy1noUv-119" value="Trader" style="html=1;whiteSpace=wrap;" parent="ykoWP7H_8N8HBuy1noUv-8" vertex="1">
          <mxGeometry x="-240" y="1020" width="110" height="50" as="geometry" />
        </mxCell>
        <mxCell id="ykoWP7H_8N8HBuy1noUv-120" value="Grossmesser" style="html=1;whiteSpace=wrap;" parent="ykoWP7H_8N8HBuy1noUv-8" vertex="1">
          <mxGeometry x="-20" y="600" width="110" height="50" as="geometry" />
        </mxCell>
        <mxCell id="ykoWP7H_8N8HBuy1noUv-121" style="edgeStyle=orthogonalEdgeStyle;rounded=0;orthogonalLoop=1;jettySize=auto;html=1;entryX=0.5;entryY=1;entryDx=0;entryDy=0;fillColor=#dae8fc;strokeColor=#6c8ebf;endArrow=blockThin;endFill=0;" parent="ykoWP7H_8N8HBuy1noUv-8" source="ykoWP7H_8N8HBuy1noUv-125" target="ykoWP7H_8N8HBuy1noUv-53" edge="1">
          <mxGeometry relative="1" as="geometry" />
        </mxCell>
        <mxCell id="ykoWP7H_8N8HBuy1noUv-122" value="extends" style="edgeLabel;html=1;align=center;verticalAlign=middle;resizable=0;points=[];" parent="ykoWP7H_8N8HBuy1noUv-121" vertex="1" connectable="0">
          <mxGeometry x="-0.5892" y="2" relative="1" as="geometry">
            <mxPoint x="2" y="36" as="offset" />
          </mxGeometry>
        </mxCell>
        <mxCell id="ykoWP7H_8N8HBuy1noUv-123" value="implements" style="edgeStyle=orthogonalEdgeStyle;rounded=0;orthogonalLoop=1;jettySize=auto;html=1;entryX=1.004;entryY=0.218;entryDx=0;entryDy=0;entryPerimeter=0;fillColor=#f8cecc;strokeColor=#b85450;dashed=1;endArrow=blockThin;endFill=0;" parent="ykoWP7H_8N8HBuy1noUv-8" source="ykoWP7H_8N8HBuy1noUv-125" target="ykoWP7H_8N8HBuy1noUv-135" edge="1">
          <mxGeometry x="-0.376" relative="1" as="geometry">
            <Array as="points">
              <mxPoint x="-130" y="840" />
              <mxPoint x="-260" y="840" />
            </Array>
            <mxPoint as="offset" />
          </mxGeometry>
        </mxCell>
        <mxCell id="ykoWP7H_8N8HBuy1noUv-124" value="implements" style="edgeStyle=orthogonalEdgeStyle;rounded=0;orthogonalLoop=1;jettySize=auto;html=1;entryX=0;entryY=0.5;entryDx=0;entryDy=0;fillColor=#e1d5e7;strokeColor=#9673a6;dashed=1;endArrow=blockThin;endFill=0;" parent="ykoWP7H_8N8HBuy1noUv-8" source="ykoWP7H_8N8HBuy1noUv-125" target="ykoWP7H_8N8HBuy1noUv-134" edge="1">
          <mxGeometry x="0.1287" relative="1" as="geometry">
            <Array as="points">
              <mxPoint x="-110" y="915" />
            </Array>
            <mxPoint as="offset" />
          </mxGeometry>
        </mxCell>
        <mxCell id="ykoWP7H_8N8HBuy1noUv-125" value="Club" style="html=1;whiteSpace=wrap;" parent="ykoWP7H_8N8HBuy1noUv-8" vertex="1">
          <mxGeometry x="-150" y="600" width="110" height="50" as="geometry" />
        </mxCell>
        <mxCell id="ykoWP7H_8N8HBuy1noUv-126" value="extends" style="edgeStyle=orthogonalEdgeStyle;rounded=0;orthogonalLoop=1;jettySize=auto;html=1;fillColor=#dae8fc;strokeColor=#6c8ebf;endArrow=blockThin;endFill=0;" parent="ykoWP7H_8N8HBuy1noUv-8" source="ykoWP7H_8N8HBuy1noUv-129" edge="1">
          <mxGeometry x="-0.828" relative="1" as="geometry">
            <mxPoint x="-40" y="210" as="targetPoint" />
            <Array as="points">
              <mxPoint x="35" y="210" />
              <mxPoint x="-40" y="210" />
            </Array>
            <mxPoint as="offset" />
          </mxGeometry>
        </mxCell>
        <mxCell id="ykoWP7H_8N8HBuy1noUv-127" value="implements" style="edgeStyle=orthogonalEdgeStyle;rounded=0;orthogonalLoop=1;jettySize=auto;html=1;entryX=1;entryY=0.5;entryDx=0;entryDy=0;fillColor=#f8cecc;strokeColor=#b85450;dashed=1;endArrow=blockThin;endFill=0;" parent="ykoWP7H_8N8HBuy1noUv-8" source="ykoWP7H_8N8HBuy1noUv-129" target="ykoWP7H_8N8HBuy1noUv-135" edge="1">
          <mxGeometry x="-0.6" relative="1" as="geometry">
            <Array as="points">
              <mxPoint x="10" y="855" />
            </Array>
            <mxPoint as="offset" />
          </mxGeometry>
        </mxCell>
        <mxCell id="ykoWP7H_8N8HBuy1noUv-128" value="implements" style="edgeStyle=orthogonalEdgeStyle;rounded=0;orthogonalLoop=1;jettySize=auto;html=1;entryX=1;entryY=0.25;entryDx=0;entryDy=0;fillColor=#e1d5e7;strokeColor=#9673a6;dashed=1;endArrow=blockThin;endFill=0;" parent="ykoWP7H_8N8HBuy1noUv-8" source="ykoWP7H_8N8HBuy1noUv-129" target="ykoWP7H_8N8HBuy1noUv-134" edge="1">
          <mxGeometry x="0.1327" relative="1" as="geometry">
            <Array as="points">
              <mxPoint x="50" y="903" />
            </Array>
            <mxPoint as="offset" />
          </mxGeometry>
        </mxCell>
        <mxCell id="ykoWP7H_8N8HBuy1noUv-129" value="Uchigatana" style="html=1;whiteSpace=wrap;" parent="ykoWP7H_8N8HBuy1noUv-8" vertex="1">
          <mxGeometry x="-20" y="600" width="110" height="50" as="geometry" />
        </mxCell>
        <mxCell id="ykoWP7H_8N8HBuy1noUv-130" value="extends" style="edgeStyle=orthogonalEdgeStyle;rounded=0;orthogonalLoop=1;jettySize=auto;html=1;entryX=1;entryY=0.25;entryDx=0;entryDy=0;fillColor=#dae8fc;strokeColor=#6c8ebf;endArrow=blockThin;endFill=0;" parent="ykoWP7H_8N8HBuy1noUv-8" source="ykoWP7H_8N8HBuy1noUv-133" target="ykoWP7H_8N8HBuy1noUv-53" edge="1">
          <mxGeometry x="-0.8715" relative="1" as="geometry">
            <Array as="points">
              <mxPoint x="175" y="193" />
            </Array>
            <mxPoint as="offset" />
          </mxGeometry>
        </mxCell>
        <mxCell id="ykoWP7H_8N8HBuy1noUv-131" value="implements" style="edgeStyle=orthogonalEdgeStyle;rounded=0;orthogonalLoop=1;jettySize=auto;html=1;entryX=1;entryY=0.799;entryDx=0;entryDy=0;entryPerimeter=0;fillColor=#f8cecc;strokeColor=#b85450;dashed=1;endArrow=blockThin;endFill=0;" parent="ykoWP7H_8N8HBuy1noUv-8" source="ykoWP7H_8N8HBuy1noUv-133" target="ykoWP7H_8N8HBuy1noUv-135" edge="1">
          <mxGeometry x="-0.7015" relative="1" as="geometry">
            <Array as="points">
              <mxPoint x="140" y="870" />
            </Array>
            <mxPoint as="offset" />
          </mxGeometry>
        </mxCell>
        <mxCell id="ykoWP7H_8N8HBuy1noUv-132" value="implements" style="edgeStyle=orthogonalEdgeStyle;rounded=0;orthogonalLoop=1;jettySize=auto;html=1;entryX=1;entryY=0.5;entryDx=0;entryDy=0;fillColor=#e1d5e7;strokeColor=#9673a6;dashed=1;endArrow=blockThin;endFill=0;" parent="ykoWP7H_8N8HBuy1noUv-8" source="ykoWP7H_8N8HBuy1noUv-133" target="ykoWP7H_8N8HBuy1noUv-134" edge="1">
          <mxGeometry x="-0.2184" relative="1" as="geometry">
            <Array as="points">
              <mxPoint x="180" y="915" />
            </Array>
            <mxPoint as="offset" />
          </mxGeometry>
        </mxCell>
        <mxCell id="ykoWP7H_8N8HBuy1noUv-133" value="GreatKnife" style="html=1;whiteSpace=wrap;" parent="ykoWP7H_8N8HBuy1noUv-8" vertex="1">
          <mxGeometry x="120" y="600" width="110" height="50" as="geometry" />
        </mxCell>
        <mxCell id="ykoWP7H_8N8HBuy1noUv-134" value="&amp;lt;&amp;lt;interface&amp;gt;&amp;gt;&lt;br&gt;PlayerBuyable" style="html=1;whiteSpace=wrap;" parent="ykoWP7H_8N8HBuy1noUv-8" vertex="1">
          <mxGeometry x="-80" y="890" width="110" height="50" as="geometry" />
        </mxCell>
        <mxCell id="ykoWP7H_8N8HBuy1noUv-135" value="&amp;lt;&amp;lt;interface&amp;gt;&amp;gt;&lt;br&gt;PlayerSellable" style="html=1;whiteSpace=wrap;" parent="ykoWP7H_8N8HBuy1noUv-8" vertex="1">
          <mxGeometry x="-370" y="830" width="110" height="50" as="geometry" />
        </mxCell>
        <mxCell id="ykoWP7H_8N8HBuy1noUv-137" value="" style="shape=folder;fontStyle=1;spacingTop=10;tabWidth=110;tabHeight=30;tabPosition=left;html=1;whiteSpace=wrap;" parent="ykoWP7H_8N8HBuy1noUv-8" vertex="1">
          <mxGeometry x="-550" y="1350" width="350" height="240" as="geometry" />
        </mxCell>
        <mxCell id="ykoWP7H_8N8HBuy1noUv-138" value="" style="shape=folder;fontStyle=1;spacingTop=10;tabWidth=110;tabHeight=30;tabPosition=left;html=1;whiteSpace=wrap;" parent="ykoWP7H_8N8HBuy1noUv-8" vertex="1">
          <mxGeometry x="-100" y="1310" width="360" height="280" as="geometry" />
        </mxCell>
        <mxCell id="ykoWP7H_8N8HBuy1noUv-139" value="extends" style="edgeStyle=orthogonalEdgeStyle;rounded=0;orthogonalLoop=1;jettySize=auto;html=1;endArrow=blockThin;endFill=0;strokeColor=#9999FF;" parent="ykoWP7H_8N8HBuy1noUv-8" source="ykoWP7H_8N8HBuy1noUv-141" target="ykoWP7H_8N8HBuy1noUv-153" edge="1">
          <mxGeometry x="-0.9024" relative="1" as="geometry">
            <Array as="points">
              <mxPoint x="-570" y="1445" />
              <mxPoint x="-570" y="270" />
              <mxPoint x="-475" y="270" />
            </Array>
            <mxPoint as="offset" />
          </mxGeometry>
        </mxCell>
        <mxCell id="ykoWP7H_8N8HBuy1noUv-140" value="implements" style="edgeStyle=orthogonalEdgeStyle;rounded=0;orthogonalLoop=1;jettySize=auto;html=1;dashed=1;endArrow=blockThin;endFill=0;" parent="ykoWP7H_8N8HBuy1noUv-8" source="ykoWP7H_8N8HBuy1noUv-141" target="ykoWP7H_8N8HBuy1noUv-144" edge="1">
          <mxGeometry relative="1" as="geometry">
            <Array as="points">
              <mxPoint x="-110" y="1440" />
              <mxPoint x="-110" y="1440" />
            </Array>
          </mxGeometry>
        </mxCell>
        <mxCell id="ykoWP7H_8N8HBuy1noUv-141" value="&lt;i&gt;&amp;lt;&amp;lt;abstract&amp;gt;&amp;gt;&lt;br&gt;PotionItem&lt;/i&gt;" style="html=1;whiteSpace=wrap;" parent="ykoWP7H_8N8HBuy1noUv-8" vertex="1">
          <mxGeometry x="-430" y="1420" width="110" height="50" as="geometry" />
        </mxCell>
        <mxCell id="ykoWP7H_8N8HBuy1noUv-142" value="extends" style="edgeStyle=orthogonalEdgeStyle;rounded=0;orthogonalLoop=1;jettySize=auto;html=1;entryX=0.5;entryY=1;entryDx=0;entryDy=0;endArrow=blockThin;endFill=0;" parent="ykoWP7H_8N8HBuy1noUv-8" source="ykoWP7H_8N8HBuy1noUv-143" target="ykoWP7H_8N8HBuy1noUv-141" edge="1">
          <mxGeometry relative="1" as="geometry" />
        </mxCell>
        <mxCell id="ykoWP7H_8N8HBuy1noUv-143" value="FlaskOfCrimsonTear" style="html=1;whiteSpace=wrap;" parent="ykoWP7H_8N8HBuy1noUv-8" vertex="1">
          <mxGeometry x="-445" y="1510" width="140" height="50" as="geometry" />
        </mxCell>
        <mxCell id="ykoWP7H_8N8HBuy1noUv-144" value="&lt;span style=&quot;font-weight: normal;&quot;&gt;&amp;lt;&amp;lt;interface&amp;gt;&amp;gt;&lt;br&gt;Resettable&lt;/span&gt;" style="html=1;whiteSpace=wrap;fontStyle=1" parent="ykoWP7H_8N8HBuy1noUv-8" vertex="1">
          <mxGeometry x="20" y="1410" width="110" height="50" as="geometry" />
        </mxCell>
        <mxCell id="ykoWP7H_8N8HBuy1noUv-145" value="manages" style="edgeStyle=orthogonalEdgeStyle;rounded=0;orthogonalLoop=1;jettySize=auto;html=1;endArrow=open;endFill=0;" parent="ykoWP7H_8N8HBuy1noUv-8" source="ykoWP7H_8N8HBuy1noUv-148" target="ykoWP7H_8N8HBuy1noUv-144" edge="1">
          <mxGeometry x="-0.1429" relative="1" as="geometry">
            <Array as="points">
              <mxPoint x="75" y="1460" />
              <mxPoint x="75" y="1460" />
            </Array>
            <mxPoint as="offset" />
          </mxGeometry>
        </mxCell>
        <mxCell id="ykoWP7H_8N8HBuy1noUv-146" value="0..*" style="edgeLabel;html=1;align=center;verticalAlign=middle;resizable=0;points=[];" parent="ykoWP7H_8N8HBuy1noUv-145" vertex="1" connectable="0">
          <mxGeometry x="-0.7422" y="-1" relative="1" as="geometry">
            <mxPoint x="14" y="-25" as="offset" />
          </mxGeometry>
        </mxCell>
        <mxCell id="ykoWP7H_8N8HBuy1noUv-147" value="1" style="edgeLabel;html=1;align=center;verticalAlign=middle;resizable=0;points=[];" parent="ykoWP7H_8N8HBuy1noUv-145" vertex="1" connectable="0">
          <mxGeometry x="-0.6762" relative="1" as="geometry">
            <mxPoint x="15" as="offset" />
          </mxGeometry>
        </mxCell>
        <mxCell id="ykoWP7H_8N8HBuy1noUv-148" value="&lt;span style=&quot;font-weight: 400;&quot;&gt;ResetManager&lt;/span&gt;" style="html=1;whiteSpace=wrap;fontStyle=1" parent="ykoWP7H_8N8HBuy1noUv-8" vertex="1">
          <mxGeometry x="20" y="1500" width="110" height="50" as="geometry" />
        </mxCell>
        <mxCell id="ykoWP7H_8N8HBuy1noUv-149" value="potion" style="text;html=1;strokeColor=none;fillColor=none;align=center;verticalAlign=middle;whiteSpace=wrap;rounded=0;" parent="ykoWP7H_8N8HBuy1noUv-8" vertex="1">
          <mxGeometry x="-550" y="1350" width="110" height="30" as="geometry" />
        </mxCell>
        <mxCell id="ykoWP7H_8N8HBuy1noUv-150" value="reset" style="text;html=1;strokeColor=none;fillColor=none;align=center;verticalAlign=middle;whiteSpace=wrap;rounded=0;" parent="ykoWP7H_8N8HBuy1noUv-8" vertex="1">
          <mxGeometry x="-100" y="1310" width="110" height="30" as="geometry" />
        </mxCell>
        <mxCell id="ykoWP7H_8N8HBuy1noUv-151" value="&amp;lt;&amp;lt;has&amp;gt;&amp;gt;" style="edgeStyle=orthogonalEdgeStyle;rounded=0;orthogonalLoop=1;jettySize=auto;html=1;dashed=1;endArrow=open;endFill=0;" parent="ykoWP7H_8N8HBuy1noUv-8" source="ykoWP7H_8N8HBuy1noUv-98" target="ykoWP7H_8N8HBuy1noUv-141" edge="1">
          <mxGeometry x="-0.5194" relative="1" as="geometry">
            <mxPoint x="-390" y="1200" as="targetPoint" />
            <Array as="points">
              <mxPoint x="-390" y="1100" />
            </Array>
            <mxPoint as="offset" />
          </mxGeometry>
        </mxCell>
        <mxCell id="ykoWP7H_8N8HBuy1noUv-152" value="1" style="edgeLabel;html=1;align=center;verticalAlign=middle;resizable=0;points=[];" parent="ykoWP7H_8N8HBuy1noUv-151" vertex="1" connectable="0">
          <mxGeometry x="-0.6788" y="-2" relative="1" as="geometry">
            <mxPoint x="-88" y="8" as="offset" />
          </mxGeometry>
        </mxCell>
        <mxCell id="ykoWP7H_8N8HBuy1noUv-153" value="&lt;i&gt;&amp;lt;&amp;lt;abstract&amp;gt;&amp;gt;&lt;br&gt;Item&lt;br&gt;&lt;/i&gt;" style="html=1;whiteSpace=wrap;" parent="ykoWP7H_8N8HBuy1noUv-8" vertex="1">
          <mxGeometry x="-530" y="180" width="110" height="50" as="geometry" />
        </mxCell>
        <mxCell id="ykoWP7H_8N8HBuy1noUv-154" value="calls" style="edgeStyle=orthogonalEdgeStyle;rounded=0;orthogonalLoop=1;jettySize=auto;html=1;entryX=0.542;entryY=1.038;entryDx=0;entryDy=0;entryPerimeter=0;endArrow=open;endFill=0;" parent="ykoWP7H_8N8HBuy1noUv-8" source="ykoWP7H_8N8HBuy1noUv-158" target="ykoWP7H_8N8HBuy1noUv-148" edge="1">
          <mxGeometry x="-0.9292" relative="1" as="geometry">
            <Array as="points">
              <mxPoint x="-630" y="550" />
              <mxPoint x="-630" y="1620" />
              <mxPoint x="80" y="1620" />
            </Array>
            <mxPoint as="offset" />
          </mxGeometry>
        </mxCell>
        <mxCell id="ykoWP7H_8N8HBuy1noUv-155" value="1" style="edgeLabel;html=1;align=center;verticalAlign=middle;resizable=0;points=[];" parent="ykoWP7H_8N8HBuy1noUv-154" vertex="1" connectable="0">
          <mxGeometry x="-0.9748" relative="1" as="geometry">
            <mxPoint x="-5" y="-20" as="offset" />
          </mxGeometry>
        </mxCell>
        <mxCell id="ykoWP7H_8N8HBuy1noUv-156" value="1" style="edgeLabel;html=1;align=center;verticalAlign=middle;resizable=0;points=[];" parent="ykoWP7H_8N8HBuy1noUv-154" vertex="1" connectable="0">
          <mxGeometry x="0.9356" y="-1" relative="1" as="geometry">
            <mxPoint x="26" y="9" as="offset" />
          </mxGeometry>
        </mxCell>
        <mxCell id="ykoWP7H_8N8HBuy1noUv-157" value="extends" style="edgeStyle=orthogonalEdgeStyle;rounded=0;orthogonalLoop=1;jettySize=auto;html=1;entryX=0;entryY=0.5;entryDx=0;entryDy=0;fillColor=#dae8fc;strokeColor=#6c8ebf;endArrow=block;endFill=0;" parent="ykoWP7H_8N8HBuy1noUv-8" source="ykoWP7H_8N8HBuy1noUv-158" target="ykoWP7H_8N8HBuy1noUv-51" edge="1">
          <mxGeometry x="-0.8969" relative="1" as="geometry">
            <Array as="points">
              <mxPoint x="-1075" y="205" />
            </Array>
            <mxPoint as="offset" />
          </mxGeometry>
        </mxCell>
        <mxCell id="ykoWP7H_8N8HBuy1noUv-158" value="SiteOfLostGrace" style="html=1;whiteSpace=wrap;" parent="ykoWP7H_8N8HBuy1noUv-8" vertex="1">
          <mxGeometry x="-1130" y="525" width="110" height="50" as="geometry" />
        </mxCell>
        <mxCell id="ykoWP7H_8N8HBuy1noUv-159" value="implements" style="edgeStyle=orthogonalEdgeStyle;rounded=0;orthogonalLoop=1;jettySize=auto;html=1;entryX=0.25;entryY=0;entryDx=0;entryDy=0;endArrow=blockThin;endFill=0;dashed=1;" parent="ykoWP7H_8N8HBuy1noUv-8" source="ykoWP7H_8N8HBuy1noUv-98" target="ykoWP7H_8N8HBuy1noUv-144" edge="1">
          <mxGeometry x="-0.918" relative="1" as="geometry">
            <mxPoint as="offset" />
          </mxGeometry>
        </mxCell>
        <mxCell id="ykoWP7H_8N8HBuy1noUv-160" value="implements" style="edgeStyle=orthogonalEdgeStyle;rounded=0;orthogonalLoop=1;jettySize=auto;html=1;dashed=1;endArrow=blockThin;endFill=0;" parent="ykoWP7H_8N8HBuy1noUv-8" source="ykoWP7H_8N8HBuy1noUv-44" edge="1">
          <mxGeometry x="-0.9319" relative="1" as="geometry">
            <mxPoint x="110" y="1410" as="targetPoint" />
            <Array as="points">
              <mxPoint x="-1910" y="970" />
              <mxPoint x="110" y="970" />
            </Array>
            <mxPoint as="offset" />
          </mxGeometry>
        </mxCell>
        <mxCell id="AuHBrUGm7kpObL6d3PiT-3" value="player" style="text;html=1;strokeColor=none;fillColor=none;align=center;verticalAlign=middle;whiteSpace=wrap;rounded=0;" parent="ykoWP7H_8N8HBuy1noUv-8" vertex="1">
          <mxGeometry x="-1130" y="1020" width="110" height="30" as="geometry" />
        </mxCell>
        <mxCell id="-l5d23-IfNzvOA-2zpZ2-0" value="extends" style="edgeStyle=orthogonalEdgeStyle;rounded=0;orthogonalLoop=1;jettySize=auto;html=1;entryX=0.9;entryY=1.012;entryDx=0;entryDy=0;entryPerimeter=0;fillColor=#dae8fc;strokeColor=#6c8ebf;endArrow=blockThin;endFill=0;" parent="ykoWP7H_8N8HBuy1noUv-8" source="AuHBrUGm7kpObL6d3PiT-4" target="ykoWP7H_8N8HBuy1noUv-98" edge="1">
          <mxGeometry relative="1" as="geometry" />
        </mxCell>
        <mxCell id="2OxngVIuGsX-pxOd1Umh-0" value="&amp;lt;&amp;lt;uses&amp;gt;&amp;gt;" style="edgeStyle=orthogonalEdgeStyle;rounded=0;orthogonalLoop=1;jettySize=auto;html=1;dashed=1;endArrow=open;endFill=0;" parent="ykoWP7H_8N8HBuy1noUv-8" source="AuHBrUGm7kpObL6d3PiT-4" target="ykoWP7H_8N8HBuy1noUv-125" edge="1">
          <mxGeometry x="-0.9055" relative="1" as="geometry">
            <Array as="points">
              <mxPoint x="-95" y="1140" />
            </Array>
            <mxPoint as="offset" />
          </mxGeometry>
        </mxCell>
        <mxCell id="AuHBrUGm7kpObL6d3PiT-4" value="Wretch" style="html=1;whiteSpace=wrap;" parent="ykoWP7H_8N8HBuy1noUv-8" vertex="1">
          <mxGeometry x="-980" y="1120" width="110" height="50" as="geometry" />
        </mxCell>
        <mxCell id="-l5d23-IfNzvOA-2zpZ2-1" value="extends" style="edgeStyle=orthogonalEdgeStyle;rounded=0;orthogonalLoop=1;jettySize=auto;html=1;fillColor=#dae8fc;strokeColor=#6c8ebf;endArrow=blockThin;endFill=0;" parent="ykoWP7H_8N8HBuy1noUv-8" source="Btcah6bdskZweKuanb2o-0" edge="1">
          <mxGeometry x="-0.5153" relative="1" as="geometry">
            <mxPoint x="-1050" y="1110" as="targetPoint" />
            <Array as="points">
              <mxPoint x="-1050" y="1205" />
              <mxPoint x="-1050" y="1110" />
            </Array>
            <mxPoint as="offset" />
          </mxGeometry>
        </mxCell>
        <mxCell id="2OxngVIuGsX-pxOd1Umh-2" value="&amp;lt;&amp;lt;uses&amp;gt;&amp;gt;" style="edgeStyle=orthogonalEdgeStyle;rounded=0;orthogonalLoop=1;jettySize=auto;html=1;dashed=1;endArrow=open;endFill=0;" parent="ykoWP7H_8N8HBuy1noUv-8" source="Btcah6bdskZweKuanb2o-0" edge="1">
          <mxGeometry x="-0.9271" relative="1" as="geometry">
            <mxPoint x="220" y="650" as="targetPoint" />
            <Array as="points">
              <mxPoint x="220" y="1205" />
            </Array>
            <mxPoint as="offset" />
          </mxGeometry>
        </mxCell>
        <mxCell id="Btcah6bdskZweKuanb2o-0" value="Bandit" style="html=1;whiteSpace=wrap;" parent="ykoWP7H_8N8HBuy1noUv-8" vertex="1">
          <mxGeometry x="-980" y="1180" width="110" height="50" as="geometry" />
        </mxCell>
        <mxCell id="-l5d23-IfNzvOA-2zpZ2-2" value="extends" style="edgeStyle=orthogonalEdgeStyle;rounded=0;orthogonalLoop=1;jettySize=auto;html=1;entryX=0.182;entryY=1;entryDx=0;entryDy=0;entryPerimeter=0;fillColor=#dae8fc;strokeColor=#6c8ebf;endArrow=blockThin;endFill=0;" parent="ykoWP7H_8N8HBuy1noUv-8" source="Btcah6bdskZweKuanb2o-1" target="ykoWP7H_8N8HBuy1noUv-98" edge="1">
          <mxGeometry x="-0.5472" relative="1" as="geometry">
            <mxPoint as="offset" />
          </mxGeometry>
        </mxCell>
        <mxCell id="TVpQPFw5VuRqML7SFWHo-0" style="edgeStyle=orthogonalEdgeStyle;rounded=0;orthogonalLoop=1;jettySize=auto;html=1;dashed=1;endArrow=open;endFill=0;" parent="ykoWP7H_8N8HBuy1noUv-8" source="Btcah6bdskZweKuanb2o-1" target="ykoWP7H_8N8HBuy1noUv-129" edge="1">
          <mxGeometry relative="1" as="geometry">
            <Array as="points">
              <mxPoint x="80" y="1265" />
            </Array>
          </mxGeometry>
        </mxCell>
        <mxCell id="TVpQPFw5VuRqML7SFWHo-1" value="&amp;lt;&amp;lt;uses&amp;gt;&amp;gt;" style="edgeLabel;html=1;align=center;verticalAlign=middle;resizable=0;points=[];" parent="TVpQPFw5VuRqML7SFWHo-0" connectable="0" vertex="1">
          <mxGeometry x="-0.9086" y="1" relative="1" as="geometry">
            <mxPoint x="-12" y="1" as="offset" />
          </mxGeometry>
        </mxCell>
        <mxCell id="Btcah6bdskZweKuanb2o-1" value="Samurai" style="html=1;whiteSpace=wrap;" parent="ykoWP7H_8N8HBuy1noUv-8" vertex="1">
          <mxGeometry x="-980" y="1240" width="110" height="50" as="geometry" />
        </mxCell>
        <mxCell id="bBdtNu2kqPhMe6GwkZ1U-5" value="&amp;lt;&amp;lt;uses&amp;gt;&amp;gt;" style="edgeStyle=orthogonalEdgeStyle;rounded=0;orthogonalLoop=1;jettySize=auto;html=1;entryX=0.5;entryY=0;entryDx=0;entryDy=0;dashed=1;endArrow=open;endFill=0;" parent="ykoWP7H_8N8HBuy1noUv-8" target="bBdtNu2kqPhMe6GwkZ1U-8" edge="1">
          <mxGeometry relative="1" as="geometry">
            <mxPoint x="-1294" y="1475" as="sourcePoint" />
          </mxGeometry>
        </mxCell>
        <mxCell id="bBdtNu2kqPhMe6GwkZ1U-6" value="&amp;lt;&amp;lt;uses&amp;gt;&amp;gt;" style="edgeStyle=orthogonalEdgeStyle;rounded=0;orthogonalLoop=1;jettySize=auto;html=1;dashed=1;endArrow=open;endFill=0;exitX=0;exitY=0.5;exitDx=0;exitDy=0;entryX=1;entryY=0.5;entryDx=0;entryDy=0;" parent="ykoWP7H_8N8HBuy1noUv-8" source="bBdtNu2kqPhMe6GwkZ1U-8" target="bBdtNu2kqPhMe6GwkZ1U-9" edge="1">
          <mxGeometry relative="1" as="geometry">
            <Array as="points">
              <mxPoint x="-1419" y="1570" />
              <mxPoint x="-1419" y="1570" />
            </Array>
            <mxPoint as="offset" />
          </mxGeometry>
        </mxCell>
        <mxCell id="bBdtNu2kqPhMe6GwkZ1U-7" value="&amp;lt;&amp;lt;uses&amp;gt;&amp;gt;" style="edgeStyle=orthogonalEdgeStyle;rounded=0;orthogonalLoop=1;jettySize=auto;html=1;dashed=1;endArrow=open;endFill=0;" parent="ykoWP7H_8N8HBuy1noUv-8" source="bBdtNu2kqPhMe6GwkZ1U-8" target="ykoWP7H_8N8HBuy1noUv-99" edge="1">
          <mxGeometry relative="1" as="geometry">
            <Array as="points">
              <mxPoint x="-941" y="1570" />
            </Array>
            <mxPoint x="-941" y="1555" as="targetPoint" />
          </mxGeometry>
        </mxCell>
        <mxCell id="bBdtNu2kqPhMe6GwkZ1U-8" value="DeathAction" style="html=1;whiteSpace=wrap;" parent="ykoWP7H_8N8HBuy1noUv-8" vertex="1">
          <mxGeometry x="-1339" y="1545" width="110" height="50" as="geometry" />
        </mxCell>
        <mxCell id="bBdtNu2kqPhMe6GwkZ1U-9" value="RandomNumberGenerator" style="html=1;whiteSpace=wrap;" parent="ykoWP7H_8N8HBuy1noUv-8" vertex="1">
          <mxGeometry x="-1759" y="1545" width="160" height="50" as="geometry" />
        </mxCell>
      </root>
    </mxGraphModel>
  </diagram>
</mxfile>
